<svg width="90" height="90" viewBox="0 0 90 90" fill="none" xmlns="http://www.w3.org/2000/svg">
<path d="M0 45C0 20.1472 20.1472 0 45 0V0C69.8528 0 90 20.1472 90 45V45C90 69.8528 69.8528 90 45 90V90C20.1472 90 0 69.8528 0 45V45Z" fill="white"/>
<path d="M38.0718 15C41.151 9.66666 48.849 9.66667 51.9282 15L77.0429 58.5C80.1221 63.8334 76.2731 70.5 70.1147 70.5H19.8852C13.7268 70.5 9.87785 63.8333 12.9571 58.5L38.0718 15Z" fill="#090606" fill-opacity="0.7"/>
<path d="M40.6699 18.4999C42.5944 15.1665 47.4057 15.1665 49.3302 18.4999L72.7129 58.9999C74.6374 62.3332 72.2317 66.4999 68.3827 66.4999H21.6174C17.7684 66.4999 15.3627 62.3332 17.2872 58.9999L40.6699 18.4999Z" fill="#090606"/>
<path d="M36.3397 43.0001C40.1887 36.3335 49.8112 36.3335 53.6603 43.0001V43.0001C57.5093 49.6668 52.698 58.0001 45 58.0001V58.0001C37.302 58.0001 32.4907 49.6668 36.3397 43.0001V43.0001Z" fill="white"/>
</svg>
